PathFileType	4	(X/Y/Z)	C:\Documents and Settings\user\My Documents\MotionFiles\BioEngCompLab_Data\Delaware\Subject 2\running_3001_smoothed.trc																																																																																																																									
DataRate	CameraRate	NumFrames	NumMarkers	Units	OrigDataRate	OrigDataStartFrame	OrigNumFrames																																																																																																																					
60	60	7	41	mm	60	376	600																																																																																																																					
Frame#	Time	R.ASIS			L.ASIS			V.Sacral			R.Thigh.Upper			R.Thigh.Front			R.Thigh.Rear			L.Thigh.Upper			L.Thigh.Front			L.Thigh.Rear			R.Shank.Upper			R.Shank.Front			R.Shank.Rear			L.Shank.Upper			L.Shank.Front			L.Shank.Rear			R.Heel			R.Midfoot.Sup			R.Midfoot.Lat			R.Toe.Tip			L.Heel			L.Midfoot.Sup			L.Midfoot.Lat			L.Toe.Tip			Sternum			R.Acromium			L.Acromium			R.Bicep			L.Bicep			R.Elbow			L.Elbow			R.Wrist.Med			R.Wrist.Lat			L.Wrist.Med			L.Wrist.Lat			R.Toe.Lat			R.Toe.Med			L.Toe.Lat			L.Toe.Med			R.Temple			L.Temple			Top.Head		
		X1	Y1	Z1	X2	Y2	Z2	X3	Y3	Z3	X4	Y4	Z4	X5	Y5	Z5	X6	Y6	Z6	X7	Y7	Z7	X8	Y8	Z8	X9	Y9	Z9	X10	Y10	Z10	X11	Y11	Z11	X12	Y12	Z12	X13	Y13	Z13	X14	Y14	Z14	X15	Y15	Z15	X16	Y16	Z16	X17	Y17	Z17	X18	Y18	Z18	X19	Y19	Z19	X20	Y20	Z20	X21	Y21	Z21	X22	Y22	Z22	X23	Y23	Z23	X24	Y24	Z24	X25	Y25	Z25	X26	Y26	Z26	X27	Y27	Z27	X28	Y28	Z28	X29	Y29	Z29	X30	Y30	Z30	X31	Y31	Z31	X32	Y32	Z32	X33	Y33	Z33	X34	Y34	Z34	X35	Y35	Z35	X36	Y36	Z36	X37	Y37	Z37	X38	Y38	Z38	X39	Y39	Z39	X40	Y40	Z40	X41	Y41	Z41

376	6.250000	880.172670	1026.264280	-62.973840	870.144840	1040.614380	-313.018070	686.047000	1063.579350	-201.531880	688.429690	742.221800	-35.256230	727.384340	659.231450	-99.136400	618.428960	672.495060	-46.922670	929.750240	768.131350	-362.865050	1015.455510	741.610110	-284.289060	983.872860	648.962340	-340.726960	482.064420	521.159180	-65.871540	468.766170	437.250520	-116.026260	413.217130	473.603940	-65.704540	999.622190	472.874510	-331.174320	1078.571530	417.527980	-282.120000	996.569090	400.201970	-330.571840	157.012590	368.271180	-136.313030	195.155230	237.443530	-197.780670	171.962540	246.163960	-93.857800	225.398830	114.367120	-185.068680	989.294010	78.227850	-236.919570	1126.807740	121.869420	-191.592410	1117.635380	92.394200	-288.091430	1244.080930	146.096360	-220.043400	919.068540	1407.547000	-246.505080	882.770510	1484.834720	-5.127060	753.333800	1522.559810	-373.633940	836.936830	1290.386230	81.843840	0.000000	0.000000	0.000000	822.977600	1195.489260	124.619900	496.198390	1363.139890	-427.724460	1053.643310	1241.522580	24.809200	1030.440190	1268.725340	-23.220480	565.627870	1116.150020	-485.258510	623.935970	1127.496340	-443.239840	181.038850	154.054200	-99.505460	179.886110	165.141490	-213.642880	1189.668460	97.078510	-298.757870	1202.289060	119.701410	-189.166660	984.432740	1629.643800	-161.185060	972.749150	1635.499150	-304.503230	1032.431760	1717.394410	-249.971160	
377	6.267000	881.159120	1023.756900	-64.596440	869.370480	1036.775390	-314.755890	685.908260	1058.477780	-200.442670	696.997250	733.949520	-36.637430	738.116090	652.230710	-100.228260	630.560970	661.301450	-47.189290	928.299800	762.009090	-361.883030	1009.103760	732.611880	-279.563290	979.294860	640.948000	-339.632690	492.961550	517.179570	-66.288670	469.315670	436.159940	-117.405650	418.774080	478.370700	-66.467040	998.619380	463.751800	-328.739440	1080.978270	412.960720	-279.370360	999.938110	390.437320	-328.510620	155.401990	406.740360	-135.693370	176.240040	272.637970	-198.028380	153.535980	283.442260	-94.030700	192.671510	141.140170	-185.032960	1010.360350	66.485840	-235.094700	1145.350460	117.961240	-188.969830	1138.299320	87.757460	-285.742860	1262.207760	147.816890	-216.816190	921.149230	1405.355100	-249.172970	885.915530	1480.563960	-6.796130	755.857540	1519.637940	-374.986080	836.401120	1286.484380	78.348670	0.000000	0.000000	0.000000	820.281430	1191.495970	120.122170	499.215520	1357.739260	-431.529080	1053.302730	1222.996220	21.753700	1032.326780	1250.759520	-26.939370	571.890080	1111.603520	-490.936650	629.625180	1122.962280	-447.843200	151.996580	189.586940	-99.835310	153.156880	202.113110	-214.330570	1210.344730	96.143910	-295.831330	1221.558720	120.269990	-185.936480	985.935060	1625.742920	-163.365190	974.075740	1631.362550	-306.583770	1033.438600	1713.386600	-252.215530	
378	6.283000	881.128600	1018.764470	-66.169560	868.083130	1030.629520	-316.573390	684.669860	1050.092040	-199.664660	707.455200	721.686950	-37.697700	752.128970	641.821590	-100.669700	644.930180	645.661130	-47.536450	929.009770	755.524840	-360.690250	1005.876770	724.538640	-275.647460	977.063420	632.792910	-338.006590	509.361420	509.017670	-66.366770	475.885680	431.419400	-117.630950	430.872680	479.543090	-66.644390	996.145510	455.175480	-326.284390	1078.707030	405.475220	-276.384550	997.717530	381.859890	-325.920990	161.954680	441.584810	-134.888350	166.818970	305.976780	-197.275440	144.971730	319.052490	-93.315170	170.201390	168.622680	-183.887310	1012.228150	60.253940	-232.977400	1145.310910	111.963930	-185.604660	1140.402590	82.936160	-282.998720	1263.920290	144.380460	-213.049390	923.085270	1399.157100	-251.055510	887.228330	1473.335450	-8.083700	758.461980	1513.156130	-377.279020	833.932430	1279.824220	75.363490	0.000000	0.000000	0.000000	815.046020	1185.121700	116.508830	503.776030	1345.831300	-437.935300	1051.152590	1195.318600	21.434840	1033.411500	1223.628300	-28.356570	582.365540	1101.219240	-497.120060	638.940610	1113.277950	-452.408600	133.638400	224.971820	-98.900420	136.581160	237.831420	-213.942410	1212.730960	92.275050	-292.570280	1221.513060	114.899680	-182.006380	987.239560	1618.696290	-164.896930	975.956850	1624.160400	-308.014400	1034.993160	1706.276980	-253.551270	
379	6.300000	879.929380	1011.382450	-67.575230	866.327390	1022.625490	-318.261410	682.304750	1039.189090	-199.406890	718.880680	706.847050	-38.125230	768.326350	629.278080	-99.931700	660.355650	627.239260	-47.584540	930.862370	748.504030	-359.237820	1005.920410	717.264160	-273.449250	976.939760	624.624630	-335.869840	530.352910	497.981350	-65.534310	488.422910	423.953250	-116.021350	448.811710	477.716610	-65.875110	992.875980	447.248470	-324.015320	1072.418950	395.277340	-272.749240	991.236020	374.369080	-323.361480	176.571200	471.454190	-133.865950	167.790250	335.272610	-195.444440	147.227480	350.788180	-91.581010	159.352310	194.395030	-181.538240	995.129580	58.254330	-230.797900	1127.482300	103.719110	-181.741270	1124.474370	77.540060	-280.017940	1250.030270	136.006090	-208.987380	924.784910	1389.017940	-252.080610	886.874880	1463.291260	-8.803490	760.727170	1502.987920	-380.442230	829.893130	1270.261960	72.980070	0.000000	0.000000	0.000000	807.942260	1176.274050	113.903590	509.932500	1327.972780	-446.839940	1046.067750	1160.276980	23.728740	1032.271240	1188.636960	-27.549860	596.914980	1085.629640	-503.612920	651.771240	1099.043460	-456.892150	127.296370	257.392550	-96.544770	131.148930	269.523740	-212.241940	1197.610110	85.425500	-289.191220	1203.348020	103.888760	-177.740040	988.273380	1609.104490	-165.756210	978.248720	1614.464480	-308.784480	1036.951900	1696.681760	-254.005170	
380	6.317000	877.370480	1002.048950	-68.709500	864.074160	1013.370000	-319.665370	678.768680	1026.870480	-199.832020	731.006040	691.032100	-37.761810	786.127080	616.249390	-97.909930	676.852420	607.613770	-46.894620	932.299930	740.699520	-357.822880	1007.655270	709.984680	-273.148560	977.775880	616.389710	-333.685970	555.684200	485.166780	-63.425720	507.081910	414.605160	-112.549060	472.255770	473.224580	-63.979280	988.789730	440.143800	-322.081120	1062.223020	383.300900	-268.281310	981.478640	368.166530	-321.276370	198.523970	495.186460	-132.667270	179.365360	358.638240	-192.706570	160.505620	376.634430	-88.915250	161.101240	216.071440	-178.053330	961.112610	59.094240	-228.864430	1093.985110	93.997050	-177.763120	1092.352170	71.650150	-277.057220	1222.039430	123.746890	-204.931820	925.969790	1375.333370	-252.154740	885.226320	1450.872440	-8.753280	762.517400	1489.482180	-384.475310	824.466060	1258.115600	71.110180	0.000000	0.000000	0.000000	799.456910	1165.154910	112.065510	518.303960	1305.113040	-457.860690	1036.859380	1119.863160	28.475110	1027.539550	1147.428220	-24.593020	615.496770	1065.744870	-510.023190	668.106200	1081.040770	-461.125760	133.699110	284.227720	-92.864930	137.345110	294.707920	-209.191070	1166.846680	76.292460	-285.983400	1169.443730	89.063990	-173.613950	989.028630	1597.849120	-165.947160	980.754150	1603.126710	-308.892550	1039.152950	1685.458250	-253.644040	
381	6.333000	873.346070	991.573060	-69.505860	861.271670	1003.686460	-320.719510	674.107360	1014.476750	-201.005000	744.111570	675.952580	-36.635130	805.383790	604.656560	-94.949940	695.317930	588.463440	-45.231020	931.760070	732.058170	-356.822970	1008.548400	701.964720	-274.202120	977.562740	607.940190	-331.942780	585.566890	471.617770	-60.116270	532.183900	404.300260	-107.981410	501.234340	466.377870	-61.006890	982.506410	433.753810	-320.512940	1047.468870	370.682070	-263.308930	968.154300	363.280880	-319.759370	226.502990	511.846920	-131.409030	201.031280	374.650880	-189.408480	184.191850	394.979340	-85.599330	175.942090	231.643430	-173.651600	913.469970	61.453410	-227.430650	1047.839600	84.114370	-174.088580	1046.826780	65.668430	-274.398960	1181.960080	109.210170	-201.188920	926.246280	1359.009890	-251.086180	882.578490	1437.119510	-7.910960	764.054440	1473.809330	-389.297180	817.576720	1244.482790	69.551570	0.000000	0.000000	0.000000	789.707030	1152.554080	110.490790	529.804990	1278.640380	-470.250400	1022.518920	1076.457640	35.360360	1018.035520	1102.218260	-19.673790	638.231510	1042.935550	-515.803530	687.808530	1060.363160	-464.596620	152.852140	303.372070	-88.192790	155.101120	311.477200	-204.965550	1123.079830	66.047730	-283.243320	1122.935550	73.098850	-170.084180	989.547000	1586.016600	-165.498120	983.248600	1591.210570	-308.347840	1041.444700	1673.634890	-252.558090	
382	6.350000	867.975400	981.080870	-69.950600	857.930480	994.554380	-321.445890	668.557370	1003.422610	-202.863450	758.707820	663.347600	-34.919100	826.132810	596.516360	-91.679990	716.886050	571.673950	-42.633310	927.964360	722.703550	-356.287320	1006.109800	692.617740	-275.633000	973.690550	598.904910	-330.817410	620.303040	458.596310	-56.095900	564.003660	394.183990	-103.466580	535.742800	457.875580	-57.257990	971.355650	427.209900	-319.218170	1026.815920	357.924770	-258.444400	949.634770	358.880220	-318.611790	258.838620	520.743590	-130.277530	231.702700	382.431580	-185.960360	216.989530	404.766970	-82.042630	203.855640	239.762860	-168.661680	855.996890	64.272260	-226.605940	992.427980	75.414780	-171.070540	991.179020	60.106490	-272.284060	1132.096800	94.180950	-198.019470	925.273500	1341.700200	-248.618870	878.967650	1423.669430	-6.493470	765.928770	1457.973390	-394.539670	808.917050	1231.198240	68.069270	0.000000	0.000000	0.000000	778.415830	1139.994020	108.662540	545.247070	1250.516110	-482.962680	1002.465030	1033.131470	43.805500	1002.798580	1056.003300	-13.213310	665.432310	1019.331420	-520.319030	710.806580	1038.889280	-466.585660	184.060120	313.469640	-83.019130	183.867920	318.694890	-199.920590	1069.333250	55.977040	-281.210510	1067.211550	58.609400	-167.465970	989.892940	1574.783810	-164.453870	985.515560	1579.883670	-307.173460	1043.697880	1662.319700	-250.841800	
